<svg width="40" height="40" viewBox="0 0 40 40" fill="none" xmlns="http://www.w3.org/2000/svg">
    <rect x="0.5" y="0.5" width="39" height="39" rx="14.5" fill="#202251" stroke="white"/>
    <path fill-rule="evenodd" clip-rule="evenodd" d="M21.5918 27.8651H12.0376C11.4094 27.8651 10.9001 27.3558 10.9001 26.7276C10.9001 26.0994 11.4094 25.5901 12.0376 25.5901H21.5918C22.0375 24.5213 23.0923 23.7701 24.3226 23.7701C25.5529 23.7701 26.6078 24.5213 27.0535 25.5901H27.9626C28.5909 25.5901 29.1001 26.0994 29.1001 26.7276C29.1001 27.3558 28.5909 27.8651 27.9626 27.8651H27.0535C26.6078 28.9339 25.5529 29.6851 24.3226 29.6851C23.0923 29.6851 22.0375 28.9339 21.5918 27.8651ZM12.9468 21.0401H12.0376C11.4094 21.0401 10.9001 20.5308 10.9001 19.9026C10.9001 19.2744 11.4094 18.7651 12.0376 18.7651H12.9468C13.3925 17.6963 14.4473 16.9451 15.6776 16.9451C16.9079 16.9451 17.9628 17.6963 18.4085 18.7651H27.9626C28.5909 18.7651 29.1001 19.2744 29.1001 19.9026C29.1001 20.5308 28.5909 21.0401 27.9626 21.0401H18.4085C17.9628 22.1089 16.9079 22.8601 15.6776 22.8601C14.4473 22.8601 13.3925 22.1089 12.9468 21.0401ZM21.5918 14.2151H12.0376C11.4094 14.2151 10.9001 13.7058 10.9001 13.0776C10.9001 12.4494 11.4094 11.9401 12.0376 11.9401H21.5918C22.0375 10.8713 23.0923 10.1201 24.3226 10.1201C25.5529 10.1201 26.6078 10.8713 27.0535 11.9401H27.9626C28.5909 11.9401 29.1001 12.4494 29.1001 13.0776C29.1001 13.7058 28.5909 14.2151 27.9626 14.2151H27.0535C26.6078 15.2839 25.5529 16.0351 24.3226 16.0351C23.0923 16.0351 22.0375 15.2839 21.5918 14.2151Z" fill="white"/>
</svg>
    