<svg width="40" height="40" viewBox="0 0 40 40" fill="none" xmlns="http://www.w3.org/2000/svg">
<rect x="0.5" y="0.5" width="39" height="39" rx="14.5" fill="#FF0420" stroke="#FF0420"/>
<path fill-rule="evenodd" clip-rule="evenodd" d="M11.0084 24.5941C11.7892 25.1695 12.7909 25.4572 14.0135 25.4572C15.4931 25.4572 16.6747 25.1129 17.5582 24.4246C18.4417 23.726 19.0634 22.6729 19.423 21.2652C19.6388 20.4022 19.8237 19.5135 19.9778 18.5992C20.0292 18.2703 20.055 17.998 20.055 17.7823C20.055 17.0631 19.8751 16.4467 19.5154 15.933C19.1559 15.409 18.6627 15.0185 18.036 14.7616C17.4092 14.4946 16.7003 14.3611 15.9093 14.3611C13.0016 14.3611 11.1985 15.7737 10.4998 18.5992C10.2533 19.6368 10.0632 20.5256 9.92958 21.2652C9.87826 21.594 9.85254 21.8715 9.85254 22.0975C9.85254 23.1763 10.2378 24.0085 11.0084 24.5941ZM15.6934 22.7293C15.2927 23.0684 14.8048 23.2379 14.2293 23.2379C13.2431 23.2379 12.7499 22.7653 12.7499 21.82C12.7499 21.594 12.7704 21.3783 12.8116 21.1728C12.9964 20.1763 13.1814 19.3337 13.3663 18.6454C13.541 17.9468 13.8287 17.4279 14.2293 17.0887C14.6403 16.7498 15.1334 16.5802 15.7089 16.5802C16.6849 16.5802 17.1729 17.0477 17.1729 17.9826C17.1729 18.2087 17.1523 18.4296 17.1113 18.6454C16.988 19.3645 16.8082 20.2071 16.5719 21.1728C16.3972 21.8715 16.1044 22.3904 15.6934 22.7293ZM20.502 25.1947C20.5636 25.2667 20.651 25.3026 20.7641 25.3026H22.86C22.9626 25.3026 23.0604 25.2667 23.1528 25.1947C23.2452 25.1227 23.3017 25.0303 23.3223 24.9174L24.0313 21.5422H26.1118C27.4576 21.5422 28.5159 21.2597 29.2866 20.6947C30.0674 20.1296 30.5862 19.2563 30.843 18.0747C30.9047 17.7974 30.9355 17.5301 30.9355 17.2734C30.9355 16.3795 30.5862 15.6963 29.8875 15.2236C29.1991 14.751 28.2847 14.5147 27.1443 14.5147H23.0448C22.9422 14.5147 22.8446 14.5506 22.7521 14.6226C22.6595 14.6946 22.6031 14.787 22.5825 14.8999L20.4558 24.9174C20.4352 25.0201 20.4506 25.1125 20.502 25.1947ZM27.3446 19.061C27.0261 19.2973 26.6511 19.4155 26.2196 19.4155H24.4473L25.033 16.6569H26.8824C27.3036 16.6569 27.6015 16.739 27.7761 16.9035C27.9508 17.0576 28.0382 17.2836 28.0382 17.5815C28.0382 17.7151 28.0228 17.8692 27.992 18.0439C27.8892 18.4858 27.6734 18.8247 27.3446 19.061Z" fill="white"/>
</svg>
