<svg width="240" height="26" viewBox="0 0 240 26" fill="none" xmlns="http://www.w3.org/2000/svg">
<g clip-path="url(#clip0_114_75)">
<path d="M29.0837 17.0282C28.2835 20.1883 25.4353 22.8399 21.5563 24.23V12.193C21.5563 5.45905 25.0691 0 29.5652 0L29.3007 15.4278C29.2939 15.9703 29.2194 16.4992 29.0905 17.0214L29.0837 17.0282Z" fill="white"/>
<path d="M0.9747 17.0282C1.78847 20.1883 4.62989 22.8399 8.50209 24.23V12.193C8.50209 5.45905 4.99609 0 0.5 0L0.757694 15.4278C0.764476 15.9703 0.839071 16.4992 0.967919 17.0214H0.9747V17.0282Z" fill="white"/>
<path d="M15.1072 8.9718C15.1072 8.9718 19.4134 14.4309 19.4134 19.7136C19.4134 24.386 15.1072 25.9932 15.1072 25.9932C15.1072 25.9932 10.801 24.386 10.801 19.7136C10.801 14.4309 15.1072 8.9718 15.1072 8.9718Z" fill="white"/>
<path d="M163.756 18.2421V11.481H159.077L156.195 17.53L157.232 7.84612L155.564 12.132L142.774 12.1659V11.5963L155.171 11.5623L158.263 3.60773L157.117 14.241L158.711 10.9045H164.333V14.6411L165.187 12.037H172.348V12.6067H165.601L163.756 18.2421Z" fill="white"/>
<path d="M140.597 6.90347L141.771 1.35626H150.634C153.591 1.35626 154.757 2.83461 154.126 5.79132L153.665 8.00884C153.035 10.9655 151.577 12.627 149.278 13C151.414 13.3662 152.167 15.0276 151.543 17.9911L151.082 20.2086C150.451 23.1653 148.661 24.6437 145.704 24.6437H136.841L138.014 19.0965H144.666C145.406 19.0965 145.853 18.7303 146.009 17.9911L146.484 15.7736H140.937L142.11 10.2264H147.657L148.132 8.00884C148.288 7.26967 147.996 6.90347 147.257 6.90347H140.597Z" fill="#00FFFF"/>
<path d="M156.975 19.9035C157.395 20.446 157.531 21.097 157.368 21.8633C157.205 22.6296 156.798 23.2874 156.147 23.8232C155.49 24.3657 154.778 24.6301 154.011 24.6301C153.245 24.6301 152.641 24.3589 152.221 23.8232C151.8 23.2806 151.665 22.6296 151.828 21.8633C151.99 21.097 152.397 20.4392 153.048 19.9035C153.706 19.361 154.418 19.0965 155.184 19.0965C155.951 19.0965 156.554 19.3678 156.975 19.9035Z" fill="#00FFFF"/>
<path d="M158.84 20.2019L161.898 5.79132C162.529 2.83461 164.319 1.35626 167.276 1.35626H171.711C174.667 1.35626 175.834 2.83461 175.203 5.79132L172.145 20.2019C171.514 23.1586 169.724 24.6369 166.767 24.6369H162.332C159.375 24.6369 158.209 23.1586 158.84 20.2019ZM167.201 6.90347L164.604 19.0965H166.821L169.419 6.90347H167.201Z" fill="#00FFFF"/>
<path d="M61.716 1.54614L52.8594 24.4606H48.4311V12.5999L43.7791 24.4606H39.3847L39.127 1.54614H43.874L43.4197 15.9635L48.7499 1.54614H52.0456L51.849 16.0245L56.9215 1.54614H61.7092H61.716Z" fill="white"/>
<path d="M71.0201 1.54614L70.7895 24.4606H66.2663L66.3613 20.1001H62.9366L61.4176 24.4606H56.8605L65.0999 1.54614H71.0201ZM64.2387 15.8889H66.4359L66.5647 7.35783L64.2387 15.8889Z" fill="white"/>
<path d="M88.7671 7.68334L88.2856 10.2399C87.933 12.1116 86.9293 13.6306 85.5052 14.6343L86.38 24.4606H81.9518L81.2736 15.9974H79.1782L77.5303 24.4606H72.8443L77.3065 1.54614H83.3826C87.0989 1.54614 89.4588 4.23159 88.7807 7.68334H88.7671ZM81.6873 11.7522C82.5621 11.7522 83.464 10.9791 83.6607 9.97546L84.115 7.68334C84.3727 6.42199 83.9184 5.77775 82.7588 5.77775H81.1787L79.9851 11.759H81.7008L81.6873 11.7522Z" fill="white"/>
<path d="M104.276 7.74438L102.181 18.6353C101.503 22.1278 98.5934 24.4538 94.8771 24.4538H88.3466L92.8088 1.53937H98.885C102.601 1.53937 104.961 4.25194 104.283 7.74438H104.276ZM98.2611 5.77776H96.681L93.8396 20.2222H95.5485C96.4233 20.2222 97.3252 19.4152 97.5219 18.4455L99.6174 7.75116C99.8751 6.46269 99.4207 5.77776 98.2611 5.77776Z" fill="white"/>
<path d="M111.641 5.77776L110.576 11.1758H114.618L113.777 15.4074H109.735L108.799 20.2222H114.164L113.357 24.4538H103.306L107.769 1.53937H117.785L116.978 5.77098H111.641V5.77776Z" fill="white"/>
<path d="M132.846 1.54614L128.384 24.4606H124.376L121.888 11.3724L119.331 24.4606H115.323L119.785 1.54614H123.793L126.282 14.6004L128.839 1.54614H132.846Z" fill="white"/>
<path d="M236.806 1.39697H183.226C182.127 1.39697 181.178 2.16327 180.947 3.23474L176.838 22.0125C176.519 23.457 177.611 24.8268 179.089 24.8472L231.476 25.5185C232.54 25.5321 233.476 24.8268 233.754 23.796L239.057 4.34689C239.464 2.86176 238.345 1.39697 236.806 1.39697Z" fill="black"/>
<path d="M196.599 9.711C196.985 9.711 197.284 9.83985 197.494 10.0975C197.704 10.3552 197.758 10.6672 197.663 11.0334L196.124 16.7908C196.029 17.157 195.805 17.4757 195.453 17.7266C195.107 17.9843 194.741 18.1132 194.354 18.1132H190.882C190.489 18.1132 190.197 17.9843 189.987 17.7266C189.783 17.469 189.722 17.157 189.817 16.7908L190.394 14.6275C190.543 14.0647 190.889 13.5764 191.431 13.1763C191.974 12.7694 192.55 12.566 193.161 12.566H195.229L195.466 11.6641C195.48 11.5895 195.453 11.5555 195.385 11.5555H192.245L192.747 9.711H196.599ZM194.727 14.4173H193.161C192.706 14.4173 192.421 14.6275 192.313 15.0412L192.014 16.1534C191.994 16.228 192.021 16.2619 192.096 16.2619H194.117C194.191 16.2619 194.239 16.228 194.259 16.1534L194.72 14.4173H194.727Z" fill="#00FFFF"/>
<path d="M199.84 6.93738H201.861L198.87 18.1064H196.85L199.84 6.93738Z" fill="#00FFFF"/>
<path d="M207.605 9.711C207.992 9.711 208.29 9.83985 208.5 10.0975C208.71 10.3552 208.765 10.6672 208.67 11.0334L207.13 16.7908C207.035 17.157 206.812 17.4757 206.459 17.7266C206.113 17.9843 205.747 18.1132 205.36 18.1132H202.499L201.753 20.8732H198.721L199.223 19.0287H200.234L202.37 11.0334C202.465 10.6672 202.682 10.3552 203.034 10.0975C203.387 9.83985 203.753 9.711 204.146 9.711H207.612H207.605ZM206.391 11.5555H204.37C204.296 11.5555 204.248 11.5895 204.228 11.6641L203.028 16.1534C203.007 16.228 203.034 16.2619 203.109 16.2619H205.13C205.204 16.2619 205.259 16.228 205.279 16.1534L206.479 11.6641C206.493 11.5895 206.466 11.5555 206.398 11.5555H206.391Z" fill="#00FFFF"/>
<path d="M216.767 11.0334L214.875 18.1132H212.854L214.576 11.664C214.59 11.5894 214.563 11.5555 214.495 11.5555H212.474C212.399 11.5555 212.352 11.5894 212.338 11.664L210.609 18.1132H207.571L208.066 16.2686H209.083L211.084 8.7887H210.073L210.568 6.94415H213.607L212.867 9.71098H215.722C216.109 9.71098 216.407 9.83982 216.617 10.0975C216.828 10.3552 216.882 10.6672 216.78 11.0334H216.767Z" fill="#00FFFF"/>
<path d="M223.019 9.711C223.406 9.711 223.704 9.83985 223.914 10.0975C224.125 10.3552 224.179 10.6672 224.084 11.0334L222.544 16.7908C222.449 17.157 222.226 17.4757 221.873 17.7266C221.527 17.9843 221.161 18.1132 220.774 18.1132H217.302C216.909 18.1132 216.617 17.9843 216.407 17.7266C216.204 17.469 216.143 17.157 216.238 16.7908L216.814 14.6275C216.963 14.0647 217.309 13.5764 217.852 13.1763C218.394 12.7694 218.971 12.566 219.581 12.566H221.649L221.887 11.6641C221.9 11.5895 221.873 11.5555 221.805 11.5555H218.665L219.167 9.711H223.019ZM221.147 14.4173H219.581C219.127 14.4173 218.842 14.6275 218.733 15.0412L218.435 16.1534C218.415 16.228 218.442 16.2619 218.516 16.2619H220.537C220.612 16.2619 220.659 16.228 220.68 16.1534L221.141 14.4173H221.147Z" fill="#00FFFF"/>
</g>
<defs>
<clipPath id="clip0_114_75">
<rect width="238.638" height="26" fill="white" transform="translate(0.5)"/>
</clipPath>
</defs>
</svg>
