<svg width="56" height="50" viewBox="0 0 56 50" fill="none" xmlns="http://www.w3.org/2000/svg">
<path d="M54.9616 32.8009C53.4016 38.862 47.9374 43.9433 40.4863 46.6567V23.4538C40.4863 10.5002 47.2361 0 55.8704 0L55.3674 29.6633C55.3555 30.7214 55.2193 31.7745 54.9616 32.8009Z" fill="white"/>
<path d="M0.90873 32.8009C2.47011 38.862 7.9343 43.9434 15.3853 46.6568V23.4538C15.3853 10.5003 8.63555 6.10352e-05 0 6.10352e-05L0.504267 29.6634C0.515767 30.7215 0.651518 31.7745 0.90873 32.8009Z" fill="white"/>
<path d="M28.0761 17.2622C28.0761 17.2622 36.3729 27.7598 36.3729 37.9172C36.3729 46.9032 28.0761 50 28.0761 50H28.0656C28.0656 50 19.7676 46.9032 19.7676 37.9172C19.7676 27.7598 28.0643 17.2622 28.0643 17.2622" fill="white"/>
</svg>
