<?xml version="1.0" encoding="UTF-8"?>
<svg id="Layer_1" data-name="Layer 1" xmlns="http://www.w3.org/2000/svg" viewBox="0 0 1902.04 771.15">
  <defs>
    <style>
      .cls-1 {
        fill: #fff3d4;
      }

      .cls-1, .cls-2 {
        stroke-width: 0px;
      }

      .cls-2 {
        fill: #f58b00;
      }
    </style>
  </defs>
  <path class="cls-2" d="M461.85,342.36c-36.84-20.52-78.24-33.85-122.29-38.1v86.27l-30.57,13.14-30.57-13.13v-23.26s0-18.05,0-18.05v-44.96c-44.05,4.25-85.44,17.58-122.29,38.1,0,0-7.31,201.51,152.85,275.01,0,0,.01,0,.02,0,160.15-73.51,152.85-275.01,152.85-275.01ZM367.5,438.55l-33.21,14.27-23.35,10.03,27.45.28c.65,0,1.11,75.55.99,75.74l-30.37,45.43s0,0,0,0l-30.57-45.73s.53-76.03,1.18-76.03l27.36.28-23.26-9.99-33.21-14.27-33.21-14.27,33.21-14.27,58.04,24.94c.3.13.63.13.93,0l58.04-24.94,33.21,14.27-33.21,14.27Z"/>
  <path class="cls-1" d="M400.71,452.82l-33.21-14.27-58.04,24.94c-.3.13-.63.13-.93,0l-58.04-24.94-33.21,14.27,33.21,14.27,33.21,14.27,25.29,10.87,25.29-10.87,33.21-14.27,33.21-14.27Z"/>
  <path class="cls-1" d="M400.71,395.65s-33.97-14.6-61.14-26.27v21.14l-30.57,13.14-30.57-13.13s0,0,0,0v-21.14l-58.62,25.19c-.95.41-.95,1.76,0,2.17l30.69,13.19,58.04,24.94c.3.13.63.13.93,0l58.04-24.94,33.21-14.27Z"/>
  <path class="cls-1" d="M413.34,270.66c-26.87-8.08-55.05-13.13-84.15-14.75l-6.95-62.65c-.17-1.58.33-3.16,1.4-4.33,3.32-3.62,5.35-8.45,5.35-13.76,0-11.25-9.12-20.37-20.37-20.37-.01,0-.02,0-.03,0-.02,0-.05,0-.07,0-11.25,0-20.37,9.12-20.37,20.37,0,5.3,2.03,10.13,5.35,13.76,1.07,1.17,1.58,2.75,1.4,4.33l-6.95,62.65c-29.1,1.63-57.28,6.67-84.15,14.75l12.78,29.05.9-.28c28.7-8.39,59.89-12.59,91.08-12.58h0c31.2,0,62.4,4.19,91.12,12.58l.93.22,12.75-28.99Z"/>
  <g>
    <path class="cls-1" d="M615.42,349.87c-34.44,0-57.4,22.3-57.4,63.15,0,41.73,23.85,63.15,56.96,63.15,30.47,0,51.89-18.1,58.07-47.69l18.33,6.62c-10.6,39.3-37.09,58.73-76.17,58.73-50.56,0-76.61-32.23-76.61-80.37,0-54.53,33.56-81.25,75.95-81.25,38.86,0,65.57,22.52,71.54,61.82l-18.99,4.64c-4.19-32.46-24.95-48.79-51.66-48.79Z"/>
    <path class="cls-1" d="M864.08,473.06c-13.25,0-13.25-4.19-13.25-14.13v-63.37c0-36.43-19.43-63.37-62.7-63.37-51.66,0-64.03,39.08-66.46,54.09l19.21,4.19c3.09-13.47,9.05-40.62,46.37-40.62,43.05,0,43.72,30.91,43.72,40.85v1.1c-19.21,0-52.11,4.42-72.42,11.7-22.96,8.39-37.09,26.72-37.09,46.81,0,28.04,23.85,43.27,47.47,43.27s52.11-14.35,62.26-34.66l2.21,31.35h41.07v-17l-10.38-.22ZM768.92,474.61c-21.86,0-27.16-13.03-27.16-23.84,0-9.71,4.42-23.18,22.3-29.81,19.65-7.29,55.42-14.35,66.9-15.01l.22,23.4c-2.43,20.53-31.79,45.26-62.26,45.26Z"/>
    <path class="cls-1" d="M1178.01,476.16c24.07,0,47.69-11.26,56.96-43.5l17.66,7.95c-11.26,38.86-43.05,53.21-74.63,53.21-45.04,0-76.83-31.13-76.83-80.81,0-49.68,31.79-80.81,76.83-80.81,48.13,0,76.39,30.25,74.63,83.68h-132.03c1.1,35.77,22.3,60.27,57.4,60.27ZM1232.99,398.22c-2.65-26.27-18.1-48.35-54.98-48.35-30.91,0-51.22,19.21-56.3,48.35h111.28Z"/>
    <path class="cls-1" d="M1308.52,335.74v135.78s83.24,0,83.24,0v18.77s-103.11,0-103.11,0v-154.55s19.87,0,19.87,0Z"/>
    <path class="cls-1" d="M1409.41,413.01c0-49.68,29.59-80.81,76.83-80.81,47.25,0,76.83,31.13,76.83,80.81,0,49.68-29.59,80.81-76.83,80.81-47.25,0-76.83-31.13-76.83-80.81ZM1486.24,476.16c35.33,0,57.4-24.29,57.4-63.15,0-38.86-22.08-63.15-57.4-63.15s-57.4,24.29-57.4,63.15c0,38.86,22.08,63.15,57.4,63.15Z"/>
    <path class="cls-1" d="M1705.18,354.06h-53.21s0,136.23,0,136.23h-19.87s0-136.23,0-136.23h-53.21s0-18.33,0-18.33h126.29s0,18.33,0,18.33Z"/>
    <path class="cls-1" d="M978.19,490.16l-49.8-129.54.05,129.53h-19.92v-154.41h31.14l48.12,121.64,47.36-121.63h31.98s0,154.54,0,154.54h-19.85s0-130.86,0-130.86l-50.87,130.84-18.2-.11Z"/>
  </g>
</svg>