<svg width="25" height="26" viewBox="0 0 25 26" fill="none" xmlns="http://www.w3.org/2000/svg">
    <path d="M3.12332 8.88433C3.06796 9.06678 2.99111 9.35517 2.99111 9.35517C2.98981 9.35844 2.98915 9.36105 2.9885 9.36432C2.77945 10.1386 2.66808 10.9292 2.66808 11.7152C2.66808 11.7715 2.66808 11.8257 2.66938 11.8807C2.6811 12.8413 2.56257 13.796 2.34961 14.7318L2.25452 15.115C1.76412 14.9228 1.26199 14.5572 0.781999 13.9471C-0.548546 12.2547 -0.105031 9.53892 1.53617 8.89937C2.17897 8.64957 2.71171 8.71366 3.12397 8.88433H3.12332Z" fill="#958FFF"/>
    <path d="M24.2176 13.9463C23.7415 14.5512 23.2433 14.9167 22.7562 15.109L22.663 14.7297C22.4501 13.7939 22.3315 12.8398 22.3426 11.8792C22.3426 11.8242 22.3426 11.77 22.3426 11.7137C22.3426 10.9244 22.2312 10.1312 22.0202 9.35434L21.877 8.88285C22.2886 8.71218 22.8213 8.64875 23.4628 8.89789C25.104 9.53744 25.5475 12.2526 24.217 13.9456L24.2176 13.9463Z" fill="#958FFF"/>
    <path d="M21.2849 14.4493C21.1006 13.6404 20.9984 12.8158 21.0081 11.9853C21.0081 11.9382 21.0081 11.8911 21.0081 11.8428C21.0081 11.1607 20.9117 10.4754 20.7294 9.80313L20.5672 9.26952C20.4676 8.97591 20.3523 8.68491 20.222 8.39979C20.127 8.19184 20.0247 7.98651 19.9146 7.78509C18.9351 5.98612 17.374 4.4533 15.5537 3.60973C15.2854 3.48548 14.6895 2.11091 14.6895 2.11091L13.286 2.9571C13.23 2.95056 13.174 2.94468 13.1173 2.93945C13.0138 2.93029 12.9109 2.9231 12.806 2.91852L12.3358 1.78198C10.6054 2.37445 9.58485 3.54368 9.2514 3.70978C7.52032 4.57101 6.04064 6.05544 5.09825 7.78509C4.98753 7.98716 4.88593 8.19184 4.79085 8.39979C4.66059 8.68491 4.54532 8.97591 4.44502 9.26952C4.42809 9.25971 4.28351 9.80248 4.28351 9.80248C4.28221 9.8051 4.28155 9.80771 4.28155 9.81033C4.10115 10.4793 4.00476 11.1627 4.00476 11.8421C4.00476 11.8905 4.00476 11.9376 4.00476 11.9847C4.01519 12.8152 3.91228 13.6404 3.72798 14.4493L3.57362 15.0745C3.56711 15.1039 3.5606 15.1333 3.55409 15.1628C3.46161 15.5865 3.41406 16.0214 3.41406 16.4661C3.41406 19.5062 5.64727 22.1206 8.84696 23.2709C9.57573 23.5338 10.3553 23.7202 11.1694 23.8182C11.5745 23.8673 11.988 23.8934 12.4094 23.8974C12.442 23.8974 12.4752 23.8974 12.5077 23.8974C17.529 23.8974 21.5995 20.5695 21.5995 16.4654C21.5995 16.0207 21.5519 15.5852 21.4595 15.1621C21.4529 15.1327 21.4464 15.1033 21.4393 15.0745L21.2849 14.448V14.4493Z" fill="#958FFF"/>
</svg>
