<svg width="17" height="5" viewBox="0 0 17 5" fill="none" xmlns="http://www.w3.org/2000/svg">
    <path d="M1.97794 4.08301C1.41797 4.08301 0.948325 3.89123 0.568995 3.50767C0.189665 3.1241 0 2.64922 0 2.08301C0 1.5168 0.189665 1.04191 0.568995 0.65835C0.948325 0.274788 1.41797 0.0830078 1.97794 0.0830078C2.51984 0.0830078 2.98045 0.274788 3.35978 0.65835C3.73911 1.04191 3.92878 1.5168 3.92878 2.08301C3.92878 2.64922 3.73911 3.1241 3.35978 3.50767C2.98045 3.89123 2.51984 4.08301 1.97794 4.08301Z" fill="#BEBEBE"/>
    <path d="M8.51355 4.08301C7.95359 4.08301 7.48394 3.89123 7.10461 3.50767C6.72528 3.1241 6.53561 2.64922 6.53561 2.08301C6.53561 1.5168 6.72528 1.04191 7.10461 0.65835C7.48394 0.274788 7.95359 0.0830078 8.51355 0.0830078C9.05545 0.0830078 9.51606 0.274788 9.89539 0.65835C10.2747 1.04191 10.4644 1.5168 10.4644 2.08301C10.4644 2.64922 10.2747 3.1241 9.89539 3.50767C9.51606 3.89123 9.05545 4.08301 8.51355 4.08301Z" fill="#BEBEBE"/>
    <path d="M15.0492 4.08301C14.4892 4.08301 14.0196 3.89123 13.6402 3.50767C13.2609 3.1241 13.0712 2.64922 13.0712 2.08301C13.0712 1.5168 13.2609 1.04191 13.6402 0.65835C14.0196 0.274788 14.4892 0.0830078 15.0492 0.0830078C15.5911 0.0830078 16.0517 0.274788 16.431 0.65835C16.8103 1.04191 17 1.5168 17 2.08301C17 2.64922 16.8103 3.1241 16.431 3.50767C16.0517 3.89123 15.5911 4.08301 15.0492 4.08301Z" fill="#BEBEBE"/>
</svg>

